<svg width="11" height="11" viewBox="0 0 11 11" fill="none" xmlns="http://www.w3.org/2000/svg">
<g clip-path="url(#clip0_1_259)">
<path d="M3.65142 2.04684C3.78676 1.9115 3.99983 1.9115 4.13517 2.04684C4.26594 2.1776 4.26594 2.39525 4.13517 2.52571L1.68228 4.97859H9.77647C9.96516 4.97859 10.12 5.12857 10.12 5.31725C10.12 5.50593 9.96516 5.66078 9.77647 5.66078H1.68228L4.13517 8.1091C4.26594 8.24444 4.26594 8.46238 4.13517 8.59284C3.99983 8.72818 3.78676 8.72818 3.65142 8.59284L0.617851 5.55928C0.487083 5.42851 0.487083 5.21087 0.617851 5.0804L3.65142 2.04684Z" fill="#D58C51"/>
</g>
<defs>
<clipPath id="clip0_1_259">
<rect width="9.6" height="9.6" fill="white" transform="translate(0.52002 0.52)"/>
</clipPath>
</defs>
</svg>
